<svg
    viewBox="0 0 256 256"
    width="256"
    height="256"
    xmlns="http://www.w3.org/2000/svg"
>
    <path
        fill="#ff2d20"
        fill-rule="evenodd"
        clip-rule="evenodd"
        d="M 110.2081,30.360604 55.561555,0 0.91501,30.360604 V 198.81176 L 103.85385,256 206.79269,198.81176 v -53.64258 l 48.2923,-26.83399 V 57.194599 l -54.64655,-30.35425 -54.64654,30.35425 v 53.655281 l -35.5838,19.76807 z m 132.16839,80.495636 -35.5838,19.76171 V 91.494837 l 35.5838,-19.761715 V 110.84988 Z M 235.64098,60.937252 200.43844,80.495631 165.2359,60.930898 200.43844,41.372518 Z M 158.5004,110.84988 V 71.726767 l 35.58379,19.76807 v 39.129473 z m -6.35425,11.00556 35.20254,19.55838 -83.49484,46.39873 -35.202541,-19.55838 83.494841,-46.38602 z m -102.938845,50.13503 48.292296,26.82764 v 39.11676 L 13.623509,191.3328 V 44.892772 l 35.583796,19.76807 V 171.99682 Z M 55.561555,53.661636 20.359013,34.103257 55.561555,14.538523 90.764097,34.109611 Z M 194.08419,152.21604 110.2081,198.81811 v 39.11676 L 194.08419,191.3328 Z M 61.915804,64.679905 97.499601,44.918189 v 92.772041 l -35.583797,19.76172 z"
        style="stroke-width:6.35425" />
</svg>
